<?xml version="1.0" encoding="utf-8"?>
<!-- Generator: Adobe Illustrator 22.0.1, SVG Export Plug-In . SVG Version: 6.00 Build 0)  -->
<svg version="1.1" id="Ebene_1" xmlns="http://www.w3.org/2000/svg" xmlns:xlink="http://www.w3.org/1999/xlink" x="0px" y="0px"
	 width="436.322px" height="168.446px" viewBox="0 0 436.322 168.446" enable-background="new 0 0 436.322 168.446"
	 xml:space="preserve">
<g>
	<g>
		<path fill-rule="evenodd" clip-rule="evenodd" fill="#D51130" d="M57.968,62.581c-6.533,5.498-12.55,9.025-21.263,19.501
			c-5.185,7.778-5.601,14.935-2.386,20.849c3.734,5.705,10.167,8.714,19.501,8.714l-2.385,8.504
			c-4.046-0.415-7.78-0.622-11.618-2.281c-8.712-3.838-15.144-10.787-13.173-21.782c1.659-7.884,4.565-12.862,10.165-18.463
			C43.241,71.087,51.643,65.797,57.968,62.581z"/>
		<path fill-rule="evenodd" clip-rule="evenodd" fill="#D51130" d="M157.129,51.587c4.252,5.809,5.913,13.277,3.631,20.331
			c-6.433,20.019-27.487,34.333-45.742,42.63c-5.395,2.491-9.958,4.979-16.285,6.64c5.185-2.801,12.135-7.47,16.285-11.618
			c2.904-3.318,5.392-5.808,9.334-10.475c9.646-6.328,18.879-14.315,25.1-24.272c4.669-7.572,5.81-17.841-0.933-24.687
			c-7.26-7.469-17.427-10.373-32.154-10.373C127.983,37.272,149.766,41.11,157.129,51.587z"/>
		<path fill-rule="evenodd" clip-rule="evenodd" fill="#878787" d="M50.086,51.899c3.008-7.676,8.713-12.136,17.427-13.691
			c10.683-1.556,19.914,2.385,22.818-4.357c1.142-3.009-1.452-4.876-2.904-5.809c-4.254-2.905-7.469-2.905-8.92-8.816
			C75.809,8.438,94.479,3.043,98.734,13.209c3.007,7.261-1.349,13.795-3.216,20.538c-2.801,10.268,5.289,25.205,16.595,25.516
			c7.988-0.207,10.477-4.044,14.936-10.995c0.728-1.14,6.431-3.837,6.951-3.837c-2.906,9.231-7.778,16.7-16.077,19.085
			c-5.29,1.661-13.174,0.623-17.426-2.49c-3.837-2.903-8.193-8.401-10.684-11.928c-3.422,7.262-9.749,9.232-7.675,15.663
			c2.593,7.365,7.363,7.26,15.973,10.165c10.06,4.046,16.908,9.128,15.351,22.611c-1.763,9.024-8.299,13.277-14.626,17.427
			c-1.66,1.244-4.666,3.111-6.741,3.837c0-2.904,0.102-4.356,0.414-8.713c6.847-4.252,16.285-10.993,12.862-20.227
			c-2.593-6.74-13.174-8.505-20.02-10.89c1.141,3.525,5.603,13.482,2.386,19.914c-4.46,7.365-9.854,11.099-18.67,14.314
			c-2.696,1.037-5.912,1.971-9.543,1.971c0.726-2.387,1.867-6.431,2.594-8.713c1.969-0.52,3.525-0.934,5.29-1.66
			c6.326-2.696,16.076-8.4,13.38-16.907c-1.142-6.845-8.61-10.165-10.271-16.491c-1.451-6.016,1.764-9.44,4.875-14.21
			c1.972-3.008,6.018-9.232,6.328-12.863c-5.188-1.66-14.418-1.66-20.226,1.868c-4.771,2.696-8.195,8.608-6.741,14.21
			c0.726,2.488,1.554,4.045,3.007,6.119c1.141,1.557,4.77,4.876,5.394,6.225c-2.075,0-5.705-0.52-8.091-1.349
			C50.294,67.561,47.804,58.432,50.086,51.899z"/>
	</g>
	<path fill-rule="evenodd" clip-rule="evenodd" fill="#878787" d="M384.36,60.962h16.737V48.407H384.36V60.962L384.36,60.962z
		 M384.36,65.355v41.009h16.737V65.355H384.36L384.36,65.355z M282.052,48.407v57.956h16.528V60.752h17.994v45.611h16.734V60.752
		h8.788c3.556,0,6.277,0.627,7.742,2.301c1.883,1.674,2.301,3.139,2.301,8.996v34.313h16.739V69.54
		c0-6.487-2.093-12.136-5.44-15.901c-3.978-3.976-8.998-5.231-20.086-5.231H282.052L282.052,48.407z M248.783,60.962h16.74V48.407
		h-16.74V60.962L248.783,60.962z M248.783,65.355v41.009h16.74V65.355H248.783L248.783,65.355z M233.093,48.407h-35.777
		c-6.907,0-10.462,0.629-13.392,2.72c-4.395,3.139-6.904,8.368-6.904,14.227c0,5.859,2.509,11.299,6.695,14.438
		c3.765,2.72,7.531,3.556,15.482,3.556h10.254c3.975,0,5.857,0.21,6.904,0.838c2.091,0.628,3.135,2.511,3.135,5.021
		c0,2.72-1.464,4.185-4.182,4.602c-1.255,0.21-3.766,0.21-7.742,0.21h-29.709v12.345h34.522c6.905,0,11.297-0.419,13.599-1.466
		c5.649-2.302,9.835-9.624,9.835-16.736c0-10.671-7.534-16.529-20.923-16.529h-9.833c-5.023,0-6.907-0.211-7.951-0.838
		c-1.885-1.045-2.932-2.72-2.932-5.021c0-3.976,1.675-5.021,9.208-5.021h29.71V48.407z"/>
	<path fill="#878787" d="M26.287,142.372v17.434h3.463v-14.547h1.387c2.424,0,3.117,0.693,3.117,3.232v1.732h3.233v-1.732
		c0-2.655-0.346-3.927-1.385-4.849c-1.04-1.04-2.425-1.271-5.312-1.271H26.287L26.287,142.372z M54.805,149.415H44.299
		c0.577-3.234,2.079-4.273,6.004-4.273h4.502v-2.77h-5.079c-2.195,0-3.811,0.23-5.196,1.04c-2.541,1.499-3.925,4.271-3.925,7.964
		c0,2.888,0.808,5.313,2.424,6.813c1.27,1.27,2.771,1.616,5.773,1.616h6.003v-2.773h-5.079c-2.195,0-3.464-0.345-4.157-1.153
		c-0.924-0.924-1.271-1.963-1.271-3.694h10.506V149.415L54.805,149.415z M71.549,149.185h-6.235c-2.194,0-3.465,0.23-4.273,0.691
		c-1.5,0.809-2.309,2.655-2.309,4.734c0,1.616,0.578,3.118,1.732,4.039c1.27,0.925,2.309,1.156,5.659,1.156h8.889v-11.085
		c0-2.654-0.23-3.81-1.154-4.733c-1.039-1.27-2.425-1.615-5.542-1.615h-9.006v2.77h8.198c3.462,0,4.042,0.464,4.042,3.579V149.185
		L71.549,149.185z M71.549,151.953v5.08h-5.89c-2.423,0-3.348-0.691-3.348-2.539c0-1.849,0.925-2.541,3.348-2.541H71.549
		L71.549,151.953z M84.019,159.806v-23.9h-3.465v23.9H84.019L84.019,159.806z M89.907,142.372v17.434h3.463v-17.434H89.907
		L89.907,142.372z M89.907,139.484h3.463v-3.579h-3.463V139.484L89.907,139.484z M100.645,142.372h-3.232v2.77h3.232v9.469
		c0,2.194,0.345,3.349,1.27,4.156c0.808,0.808,1.733,1.039,3.926,1.039h3.463v-2.773h-2.077c-2.771,0-3.003-0.228-3.003-2.769
		v-9.122h4.963v-2.77h-4.963v-6.467h-3.579V142.372L100.645,142.372z M124.891,157.033h-4.271c-3.002,0-3.811-0.922-3.811-4.155
		v-10.506h-3.463v9.581c0,2.194,0,2.771,0.23,3.812c0.231,1.268,1.039,2.425,2.309,3.117c1.155,0.692,2.08,0.924,4.273,0.924h4.732
		c0,1.269-0.114,1.85-0.691,2.309c-0.578,0.463-0.692,0.463-3.349,0.463h-7.504v2.772h7.734c2.657,0,3.927-0.117,4.851-0.577
		c1.5-0.694,2.193-1.964,2.422-4.273c0-0.461,0-2.886,0-3.579v-14.547h-3.463V157.033L124.891,157.033z M142.327,142.372v17.434
		h3.464v-14.664h6.465v14.664h3.464v-14.664h2.771c2.887,0,3.926,0.925,3.926,3.81v10.855h3.463v-10.855
		c0-2.885-0.462-4.27-1.732-5.309c-1.27-1.156-2.078-1.271-6.35-1.271H142.327L142.327,142.372z M179.391,142.14
		c-3.118,0-5.312,0.809-6.928,2.541c-1.386,1.616-2.194,4.04-2.194,6.695c0,5.543,3.232,8.661,8.892,8.661
		c5.657,0,8.889-3.349,8.889-8.893C188.049,145.372,184.933,142.14,179.391,142.14L179.391,142.14z M179.16,145.028
		c3.347,0,5.311,2.191,5.311,6.233c0,3.924-1.849,5.89-5.428,5.89c-3.463,0-5.195-2.08-5.195-6.007
		C173.848,147.22,175.695,145.028,179.16,145.028L179.16,145.028z M193.824,142.372h-3.351v2.77h3.351v9.469
		c0,2.194,0.229,3.349,1.153,4.156c0.808,0.808,1.733,1.039,4.041,1.039h3.349v-2.773h-2.08c-2.655,0-3.002-0.228-3.002-2.769
		v-9.122h4.966v-2.77h-4.966v-6.467h-3.462V142.372L193.824,142.372z M206.638,142.372v17.434h3.58v-17.434H206.638L206.638,142.372
		z M206.638,139.484h3.58v-3.579h-3.58V139.484L206.638,139.484z M223.843,142.14c-3.117,0-5.313,0.809-6.812,2.541
		c-1.386,1.616-2.194,4.04-2.194,6.695c0,5.543,3.116,8.661,8.892,8.661c5.54,0,8.889-3.349,8.889-8.893
		C232.618,145.372,229.5,142.14,223.843,142.14L223.843,142.14z M223.729,145.028c3.347,0,5.31,2.191,5.31,6.233
		c0,3.924-1.847,5.89-5.428,5.89c-3.463,0-5.194-2.08-5.194-6.007C218.416,147.22,220.263,145.028,223.729,145.028L223.729,145.028z
		 M237.238,142.372v17.434h3.462v-14.664h4.044c3.116,0,4.155,1.155,4.155,4.618v10.046h3.465v-10.391
		c0-5.081-1.965-7.043-7.045-7.043H237.238L237.238,142.372z M280.304,142.372h-8.776c-1.96,0-3.232,0.114-4.156,0.576
		c-1.5,0.809-2.308,2.424-2.308,4.504c0,1.732,0.576,3.346,1.731,4.272c1.038,0.921,1.732,1.036,5.657,1.036h1.386
		c1.503,0,2.08,0,2.424,0.117c0.81,0.231,1.156,0.809,1.156,1.965c0,1.037-0.233,1.73-0.81,1.962
		c-0.347,0.114-1.153,0.228-3.001,0.228h-8.43v2.773h9.237c2.656,0,3.35-0.115,4.273-0.461c1.5-0.695,2.307-2.426,2.307-4.734
		c0-2.079-0.575-3.579-1.616-4.388c-0.807-0.463-1.039-0.577-4.964-0.577h-2.426c-2.77,0-3.348-0.347-3.348-2.079
		c0-0.809,0.23-1.5,0.578-1.961c0.348-0.464,0.691-0.464,3.232-0.464h7.852V142.372L280.304,142.372z M297.16,157.033h-4.27
		c-3.002,0-3.81-0.922-3.81-4.155v-10.506h-3.467v9.581c0,2.194,0,2.771,0.233,3.812c0.23,1.268,1.038,2.425,2.31,3.117
		c1.154,0.692,2.078,0.924,4.271,0.924h4.732c0,1.269-0.114,1.85-0.689,2.309c-0.58,0.463-0.809,0.463-3.349,0.463h-7.509v2.772
		h7.739c2.653,0,3.926-0.117,4.849-0.577c1.499-0.694,2.193-1.964,2.31-4.273c0.115-0.461,0.115-2.886,0.115-3.579v-14.547h-3.466
		V157.033L297.16,157.033z M320.37,142.372h-8.776c-1.847,0-3.117,0.114-4.04,0.576c-1.501,0.809-2.424,2.424-2.424,4.504
		c0,1.732,0.693,3.346,1.847,4.272c0.923,0.921,1.73,1.036,5.541,1.036h1.501c1.503,0,2.081,0,2.425,0.117
		c0.809,0.231,1.157,0.809,1.157,1.965c0,1.037-0.233,1.73-0.809,1.962c-0.464,0.114-1.27,0.228-3.006,0.228h-8.428v2.773h9.239
		c2.654,0,3.349-0.115,4.156-0.461c1.501-0.695,2.424-2.426,2.424-4.734c0-2.079-0.579-3.579-1.616-4.388
		c-0.808-0.463-1.038-0.577-4.964-0.577h-2.427c-2.883,0-3.464-0.347-3.464-2.079c0-0.809,0.233-1.5,0.581-1.961
		c0.459-0.464,0.806-0.464,3.229-0.464h7.852V142.372L320.37,142.372z M327.296,142.372h-3.347v2.77h3.347v9.469
		c0,2.194,0.347,3.349,1.272,4.156c0.807,0.808,1.73,1.039,3.923,1.039h3.464v-2.773h-2.075c-2.771,0-3.12-0.228-3.12-2.769v-9.122
		h5.082v-2.77h-5.082v-6.467h-3.464V142.372L327.296,142.372z M352.698,149.415h-10.505c0.692-3.234,2.077-4.273,6.003-4.273h4.502
		v-2.77h-5.079c-2.193,0-3.81,0.23-5.081,1.04c-2.657,1.499-4.041,4.271-4.041,7.964c0,2.888,0.922,5.313,2.424,6.813
		c1.388,1.27,2.773,1.616,5.774,1.616h6.003v-2.773h-5.079c-2.193,0-3.349-0.345-4.156-1.153c-0.925-0.924-1.269-1.963-1.269-3.694
		h10.505V149.415L352.698,149.415z M357.664,142.372v17.434h3.463v-14.664h6.467v14.664h3.464v-14.664h2.655
		c3.001,0,4.041,0.925,4.041,3.81v10.855h3.465v-10.855c0-2.885-0.463-4.27-1.734-5.309c-1.383-1.156-2.077-1.271-6.349-1.271
		H357.664L357.664,142.372z M400.962,142.372h-8.774c-1.965,0-3.117,0.114-4.041,0.576c-1.502,0.809-2.428,2.424-2.428,4.504
		c0,1.732,0.695,3.346,1.734,4.272c1.038,0.921,1.847,1.036,5.656,1.036h1.386c1.616,0,2.194,0,2.54,0.117
		c0.81,0.231,1.154,0.809,1.154,1.965c0,1.037-0.345,1.73-0.806,1.962c-0.462,0.114-1.272,0.228-3.12,0.228h-8.313v2.773h9.236
		c2.657,0,3.349-0.115,4.156-0.461c1.503-0.695,2.427-2.426,2.427-4.734c0-2.079-0.693-3.579-1.731-4.388
		c-0.809-0.463-0.926-0.577-4.852-0.577h-2.425c-2.886,0-3.463-0.347-3.463-2.079c0-0.809,0.23-1.5,0.577-1.961
		c0.462-0.464,0.81-0.464,3.233-0.464h7.852V142.372z"/>
</g>
</svg>
